<svg width="512" height="512" viewBox="0 0 512 512" fill="none" xmlns="http://www.w3.org/2000/svg">
<rect width="512" height="512" fill="#14171D"/>
<path d="M270.433 83.25C271.013 83.5091 271.592 83.7683 272.189 84.0353C294.009 94.9907 303.618 122.615 310.446 143.372C310.688 144.103 310.929 144.835 311.178 145.589C312.64 150.157 313.73 154.693 314.511 159.41C315.397 159.153 316.283 158.895 317.195 158.63C324.386 156.585 331.582 154.81 338.943 153.406C339.648 153.27 340.353 153.135 341.079 152.995C350.634 151.231 360.049 150.244 369.776 150.274C371.282 150.276 372.787 150.26 374.292 150.242C388.144 150.181 401.743 153.085 412.218 162.173C418.966 168.784 420.982 176.654 420.884 185.611C419.549 208.516 401.993 228.145 386.326 244.144C385.321 245.18 384.328 246.226 383.34 247.277C382.713 247.942 382.086 248.607 381.441 249.293C380.884 249.887 380.327 250.481 379.753 251.094C378.102 252.72 376.375 254.099 374.486 255.468C375.468 257.622 376.492 258.813 378.415 260.271C382.541 263.595 386.078 267.413 389.66 271.249C390.007 271.616 390.353 271.983 390.711 272.361C405.928 288.516 421.599 308.625 420.982 331.317C420.044 340.165 416.061 347.257 408.936 352.954C391.591 364.759 366.98 363.422 346.826 360.34C335.898 358.52 325.107 356.014 314.511 352.898C314.438 353.342 314.365 353.785 314.29 354.243C313.389 359.353 311.993 364.212 310.356 369.15C310.097 369.936 309.838 370.722 309.571 371.532C303.61 389.437 296.186 407.301 281.995 420.824C281.501 421.309 281.007 421.794 280.499 422.293C272.58 429.562 263.572 432.159 252.772 431.993C248.616 431.83 245.229 430.848 241.53 429.058C240.661 428.669 240.661 428.669 239.774 428.272C230.019 423.375 223.168 414.567 217.684 405.729C217.409 405.288 217.134 404.846 216.85 404.391C210.023 393.243 205.495 381.124 201.471 368.85C201.114 367.761 201.114 367.761 200.749 366.65C199.303 362.105 198.232 357.587 197.452 352.898C196.123 353.284 196.123 353.284 194.768 353.678C187.577 355.722 180.381 357.498 173.02 358.901C171.963 359.105 171.963 359.105 170.884 359.313C161.329 361.077 151.914 362.063 142.187 362.034C140.681 362.032 139.176 362.048 137.671 362.065C123.736 362.128 110.012 359.107 99.4061 350.067C92.7463 343.435 90.8522 335.004 91.0088 326.179C92.079 308.668 103.595 292.496 115.077 279.482C115.413 279.097 115.749 278.712 116.095 278.316C120.414 273.377 124.92 268.612 129.529 263.916C129.988 263.447 130.447 262.977 130.92 262.494C131.355 262.055 131.79 261.616 132.239 261.163C132.622 260.775 133.006 260.387 133.401 259.987C134.68 258.813 136.035 257.826 137.477 256.84C136.532 254.418 135.021 253.251 132.924 251.675C131.072 250.151 129.557 248.383 127.971 246.612C126.652 245.191 125.271 243.877 123.839 242.56C120.376 239.311 117.375 235.759 114.355 232.139C113.789 231.485 113.224 230.83 112.641 230.156C100.329 215.566 89.7255 197.88 91.2318 178.622C93.1188 169.488 97.7957 162.837 105.684 157.352C129.98 144.065 163.454 150.774 188.965 156.84C191.841 157.582 194.64 158.475 197.452 159.41C197.527 158.962 197.602 158.513 197.679 158.052C198.562 153.09 199.855 148.346 201.426 143.543C201.677 142.775 201.928 142.007 202.187 141.216C208.89 121.172 218.734 94.7142 239.749 84.0594C240.336 83.7923 240.924 83.5252 241.53 83.25C242.11 82.9687 242.69 82.6875 243.288 82.3977C251.714 78.8661 262.286 79.3071 270.433 83.25ZM240.085 103.834C226.882 118.349 212.773 145.373 213.349 164.899C213.787 165.05 214.226 165.201 214.677 165.357C224.424 168.733 234.02 172.331 243.508 176.317C244.13 176.576 244.752 176.836 245.393 177.103C246.745 177.69 248.082 178.309 249.406 178.95C253.232 180.88 253.232 180.88 257.415 181.109C258.134 180.741 258.854 180.373 259.594 179.994C260.83 179.473 262.068 178.96 263.309 178.45C264.781 177.822 266.252 177.193 267.724 176.563C277.829 172.285 288.111 168.224 298.614 164.899C298.202 159.678 296.908 154.937 295.317 149.933C295.058 149.116 294.799 148.298 294.532 147.456C288.76 129.604 280.642 106.733 262.485 96.9725C253.633 93.2925 246.291 97.966 240.085 103.834ZM111.306 173.778C107.932 177.481 107.408 181.173 107.558 185.92C109.706 202.808 123.032 217.927 134.587 230.081C134.956 230.47 135.325 230.86 135.706 231.261C137.862 233.525 140.043 235.765 142.251 237.985C143.225 238.967 144.186 239.961 145.146 240.955C145.715 241.527 146.285 242.099 146.871 242.689C147.363 243.189 147.855 243.69 148.361 244.206C149.655 245.295 149.655 245.295 151.113 245.211C153.403 244.138 155.159 242.547 157.032 240.93C161.058 237.559 165.215 234.427 169.542 231.41C170.06 231.048 170.578 230.686 171.112 230.312C171.643 229.945 172.173 229.578 172.72 229.199C173.284 228.798 173.848 228.397 174.428 227.984C176.081 226.919 177.658 226.057 179.422 225.188C185.048 222.311 185.048 222.311 188.791 217.577C190.067 213.283 190.236 208.872 190.452 204.437C190.55 203.139 190.653 201.841 190.761 200.543C190.92 198.608 191.075 196.673 191.207 194.736C191.677 187.936 192.726 181.233 193.839 174.505C151.18 162.315 131.262 162.173 111.306 173.778ZM325.711 172.532C324.687 172.781 324.687 172.781 323.643 173.034C322.711 173.277 322.711 173.277 321.759 173.524C320.939 173.734 320.939 173.734 320.101 173.948C319.687 174.132 319.273 174.315 318.847 174.505C317.966 177.013 318.314 178.414 318.767 181.018C318.842 181.464 318.917 181.91 318.995 182.369C319.326 184.344 319.67 186.316 320.015 188.289C320.975 193.816 321.834 199.263 322.056 204.866C321.972 213.924 321.972 213.924 326.075 221.63C328.437 223.33 331.027 224.526 333.689 225.744C337.128 227.498 340.121 229.862 343.189 232.139C343.834 232.607 344.478 233.074 345.143 233.555C349.681 236.854 354.015 240.315 358.23 243.978C359.86 245.336 359.86 245.336 361.427 245.05C363.238 244.372 364.193 243.53 365.558 242.214C366.292 241.512 366.292 241.512 367.041 240.795C367.545 240.302 368.05 239.809 368.569 239.301C369.313 238.589 369.313 238.589 370.073 237.863C373.365 234.689 376.499 231.411 379.544 228.023C380.111 227.393 380.111 227.393 380.691 226.751C391.585 214.563 404.969 198.659 404.36 181.757C403.72 177.215 401.34 174.079 397.594 171.289C377.848 158.862 346.545 167.357 325.711 172.532ZM209.736 179.994C208.207 185.14 207.5 190.354 206.755 195.646C206.623 196.562 206.49 197.478 206.357 198.395C205.663 202.901 205.663 202.901 205.4 207.439C207.902 206.545 210.148 205.505 212.437 204.199C213.084 203.832 213.732 203.465 214.399 203.087C215.081 202.697 215.762 202.308 216.465 201.907C223.077 198.161 229.738 194.517 236.472 190.972C234.627 188.898 232.628 188.116 230.002 187.11C229.152 186.782 228.301 186.454 227.425 186.117C226.982 185.949 226.539 185.782 226.083 185.609C224.742 185.102 223.405 184.585 222.068 184.069C217.987 182.508 213.979 181.092 209.736 179.994ZM301.504 179.994C290.881 183.763 290.881 183.763 280.369 187.799C279.575 188.115 278.782 188.432 277.964 188.758C276.12 189.437 276.12 189.437 275.491 190.972C275.978 191.227 276.465 191.482 276.966 191.745C294.222 200.805 294.222 200.805 301.795 205.486C303.998 206.964 303.998 206.964 306.563 207.439C306.235 204.637 305.903 201.835 305.569 199.034C305.478 198.252 305.386 197.47 305.292 196.665C304.976 187.694 304.976 187.694 301.504 179.994ZM250.147 201.245C249.719 201.461 249.291 201.676 248.85 201.899C247.445 202.61 246.045 203.33 244.646 204.051C244.165 204.297 243.685 204.542 243.19 204.795C231.278 210.886 219.622 217.397 208.291 224.421C207.849 224.691 207.407 224.962 206.952 225.24C204.462 226.82 204.462 226.82 203.233 229.395C203.124 230.75 203.053 232.108 203.004 233.466C202.958 234.697 202.958 234.697 202.912 235.952C202.884 236.831 202.855 237.709 202.826 238.615C202.781 239.971 202.781 239.971 202.735 241.354C202.392 252.008 202.45 262.609 202.781 273.264C202.803 274.099 202.826 274.933 202.848 275.793C202.877 276.578 202.905 277.363 202.934 278.172C202.956 278.871 202.979 279.571 203.002 280.291C203.308 282.858 203.768 284.871 205.827 286.65C206.284 286.916 206.741 287.182 207.213 287.456C208 287.922 208 287.922 208.803 288.397C209.379 288.724 209.955 289.051 210.549 289.388C211.46 289.918 211.46 289.918 212.389 290.459C214.388 291.615 216.396 292.755 218.407 293.891C219.081 294.275 219.756 294.658 220.45 295.054C225.514 297.928 230.619 300.73 235.749 303.497C236.162 303.72 236.576 303.944 237.001 304.175C239.975 305.784 242.962 307.368 245.956 308.943C246.748 309.369 247.54 309.796 248.356 310.236C249.101 310.622 249.846 311.008 250.613 311.406C251.267 311.751 251.921 312.096 252.595 312.451C255.741 313.507 257.95 312.8 260.935 311.557C261.645 311.195 262.355 310.833 263.086 310.46C263.892 310.05 264.699 309.641 265.53 309.219C266.397 308.77 267.264 308.321 268.13 307.871C268.794 307.529 268.794 307.529 269.471 307.181C278.879 302.342 288.086 297.203 297.169 291.832C297.769 291.479 298.369 291.125 298.988 290.761C300.558 289.829 302.117 288.884 303.672 287.93C304.335 287.533 304.335 287.533 305.011 287.128C307.18 285.816 307.18 285.816 308.468 283.785C308.803 281.797 308.89 279.854 308.959 277.842C309.005 276.547 309.005 276.547 309.051 275.226C309.08 274.3 309.109 273.375 309.137 272.449C309.152 271.98 309.167 271.51 309.182 271.026C309.4 264.237 309.61 257.457 309.453 250.665C309.436 249.875 309.419 249.085 309.402 248.27C309.349 245.953 309.289 243.636 309.222 241.319C309.196 240.382 309.171 239.444 309.148 238.507C309.116 237.182 309.073 235.857 309.03 234.533C309.007 233.758 308.984 232.984 308.961 232.186C308.671 229.539 308.26 227.493 306.136 225.658C305.679 225.392 305.222 225.126 304.75 224.852C304.226 224.541 303.701 224.23 303.16 223.91C302.296 223.42 302.296 223.42 301.414 222.92C300.807 222.566 300.2 222.213 299.574 221.849C297.575 220.692 295.567 219.553 293.556 218.417C292.882 218.033 292.207 217.649 291.513 217.254C283.082 212.468 274.54 207.875 265.917 203.408C264.711 202.777 264.711 202.777 263.48 202.132C262.356 201.557 262.356 201.557 261.209 200.969C260.217 200.457 260.217 200.457 259.204 199.935C255.577 198.447 253.405 199.594 250.147 201.245ZM183.412 240.735C182.901 241.106 182.389 241.477 181.862 241.86C181.313 242.261 180.765 242.661 180.2 243.075C179.645 243.479 179.091 243.883 178.519 244.299C174.678 247.108 170.9 249.975 167.177 252.924C165.658 254.095 165.658 254.095 163.49 255.468C163.49 255.921 163.49 256.373 163.49 256.84C164.893 257.999 166.302 259.075 167.781 260.142C168.447 260.63 168.447 260.63 169.126 261.128C170.094 261.836 171.064 262.542 172.035 263.246C173.691 264.448 175.34 265.658 176.988 266.869C178.104 267.686 179.22 268.503 180.336 269.319C180.875 269.715 181.415 270.11 181.971 270.518C182.472 270.882 182.973 271.246 183.489 271.621C183.935 271.947 184.382 272.272 184.841 272.608C185.776 273.373 185.776 273.373 186.613 273.307C186.613 261.986 186.613 250.665 186.613 239.001C185.316 239.001 184.409 240.011 183.412 240.735ZM325.35 239.001C325.35 250.322 325.35 261.643 325.35 273.307C329.356 270.771 333.18 268.303 336.911 265.459C337.778 264.803 338.646 264.148 339.514 263.492C339.929 263.178 340.345 262.863 340.773 262.539C342.952 260.907 345.179 259.332 347.406 257.759C347.758 257.456 348.11 257.153 348.473 256.84C348.473 256.387 348.473 255.934 348.473 255.468C347.07 254.309 345.661 253.233 344.182 252.166C343.738 251.84 343.294 251.515 342.837 251.18C341.869 250.472 340.899 249.766 339.928 249.061C338.272 247.859 336.623 246.649 334.975 245.438C333.859 244.622 332.743 243.805 331.627 242.989C330.818 242.395 330.818 242.395 329.992 241.79C329.491 241.426 328.99 241.062 328.474 240.687C328.028 240.361 327.581 240.035 327.122 239.7C326.187 238.935 326.187 238.935 325.35 239.001ZM148.468 268.116C147.997 268.569 147.526 269.023 147.04 269.49C146.516 269.992 145.991 270.493 145.451 271.01C144.906 271.542 144.361 272.073 143.8 272.621C143.266 273.131 142.733 273.642 142.183 274.167C138.791 277.433 135.547 280.791 132.419 284.285C132.037 284.711 131.656 285.138 131.262 285.577C120.38 297.852 107.054 313.429 107.603 330.373C108.199 335.028 110.532 338.161 114.369 341.019C129.388 350.471 151.66 346.894 168.187 343.807C174.249 342.618 180.265 341.265 186.252 339.776C187.275 339.527 187.275 339.527 188.319 339.274C188.941 339.112 189.563 338.95 190.204 338.784C190.751 338.644 191.298 338.504 191.862 338.36C192.276 338.176 192.69 337.992 193.116 337.803C193.997 335.295 193.649 333.894 193.196 331.29C193.121 330.844 193.046 330.398 192.968 329.939C192.637 327.964 192.293 325.992 191.948 324.019C190.988 318.492 190.129 313.045 189.907 307.442C189.991 298.384 189.991 298.384 185.888 290.677C183.526 288.977 180.936 287.781 178.274 286.564C174.835 284.809 171.842 282.446 168.774 280.168C168.13 279.701 167.486 279.233 166.822 278.751C162.288 275.451 157.924 272.008 153.662 268.397C151.595 266.888 150.582 266.508 148.468 268.116ZM357.415 269.319C350.082 275.709 341.83 281.156 333.84 286.772C333.264 287.178 332.687 287.584 332.093 288.003C331.548 288.384 331.003 288.765 330.442 289.158C329.964 289.492 329.486 289.827 328.993 290.172C327.518 291.146 327.518 291.146 325.595 291.905C323.31 293.662 323.313 294.991 323 297.689C322.946 298.295 322.893 298.902 322.838 299.527C322.768 300.162 322.698 300.796 322.626 301.45C322.404 303.489 322.205 305.529 322.008 307.57C321.733 310.222 321.45 312.872 321.167 315.523C321.099 316.174 321.031 316.825 320.961 317.496C320.259 324.072 319.228 330.592 318.124 337.117C321.312 338.475 324.348 339.56 327.752 340.354C328.607 340.554 329.462 340.754 330.343 340.96C331.244 341.163 332.144 341.367 333.072 341.577C333.538 341.682 334.003 341.788 334.483 341.896C354.071 346.312 378.569 351.125 397.157 341.319C400.939 338.412 403.67 335.236 404.38 330.54C404.754 315.629 394.692 302.302 385.324 291.146C384.791 290.494 384.257 289.841 383.707 289.168C379.206 283.775 374.21 278.807 369.206 273.837C368.158 272.795 367.117 271.748 366.077 270.699C365.573 270.201 365.069 269.703 364.55 269.19C364.137 268.78 363.723 268.369 363.297 267.947C360.778 266.072 359.325 267.566 357.415 269.319ZM205.4 304.869C205.728 307.671 206.06 310.472 206.394 313.274C206.485 314.056 206.577 314.838 206.671 315.643C206.987 324.614 206.987 324.614 210.459 332.314C221.082 328.545 221.082 328.545 231.594 324.509C232.388 324.193 233.181 323.876 233.999 323.55C235.843 322.87 235.843 322.87 236.472 321.336C235.985 321.081 235.498 320.826 234.997 320.563C217.742 311.502 217.742 311.502 210.168 306.822C207.965 305.344 207.965 305.344 205.4 304.869ZM301.279 307.099C295.051 310.821 288.638 314.235 282.238 317.681C279.986 318.895 277.739 320.115 275.491 321.336C277.336 323.41 279.335 324.191 281.961 325.198C282.811 325.526 283.662 325.853 284.538 326.191C284.981 326.359 285.424 326.526 285.88 326.699C287.221 327.206 288.558 327.722 289.895 328.239C293.976 329.8 297.984 331.215 302.227 332.314C303.756 327.168 304.463 321.954 305.208 316.662C305.34 315.745 305.473 314.829 305.606 313.913C306.3 309.406 306.3 309.406 306.563 304.869C304.365 304.869 303.124 305.981 301.279 307.099ZM252.112 332.303C251.448 332.602 250.785 332.9 250.101 333.208C249.374 333.536 248.647 333.863 247.898 334.201C240.626 337.429 233.261 340.308 225.768 343.035C225.272 343.215 224.777 343.396 224.266 343.582C216.353 346.458 216.353 346.458 213.349 347.409C213.761 352.63 215.055 357.371 216.646 362.375C216.905 363.192 217.164 364.01 217.431 364.852C223.221 382.759 231.33 405.492 249.478 415.335C253.015 416.971 256.542 416.962 260.317 416.021C273.505 411.391 280.344 397.842 286.032 386.569C295.274 367.64 295.274 367.64 298.614 347.409C298.176 347.258 297.737 347.106 297.286 346.951C285.474 342.859 273.867 338.424 262.455 333.406C261.74 333.092 261.024 332.777 260.286 332.453C259.635 332.164 258.983 331.875 258.312 331.578C255.697 330.543 254.577 331.175 252.112 332.303Z" fill="#5A6ACF"/>
</svg>
